<svg width="72" height="72" viewBox="0 0 72 72" fill="none" xmlns="http://www.w3.org/2000/svg">
<g clip-path="url(#clip0_177_484)">
<path d="M12.7501 0.719971H59.2501C66.3001 0.719971 71.9999 6.41997 71.9999 13.4699V58.17C71.9999 65.2199 66.3001 70.92 59.2501 70.92H12.7501C5.70012 70.92 0.00012207 65.2199 0.00012207 58.17V13.4699C0.00012207 6.41997 5.70012 0.719971 12.7501 0.719971Z" fill="#00005B"/>
<path d="M28.9202 42.72H17.7602L15.4802 49.8C15.4202 50.07 15.1802 50.25 14.9102 50.22H9.27019C8.94022 50.22 8.85022 50.04 8.94022 49.68L18.6002 21.99C18.6902 21.69 18.7802 21.42 18.9002 21.06C19.0202 20.43 19.0802 19.77 19.0802 19.11C19.0502 18.96 19.1702 18.81 19.3202 18.78H19.4102H27.0902C27.3002 18.78 27.4502 18.87 27.4802 19.02L38.4302 49.62C38.5202 49.95 38.4302 50.1 38.1302 50.1H31.8602C31.6502 50.13 31.4402 49.98 31.3802 49.77L28.9202 42.57V42.72ZM19.5002 36.75H27.1202C26.9402 36.12 26.7002 35.37 26.4302 34.59C26.1602 33.78 25.8902 32.91 25.6202 32.01C25.3202 31.08 25.0502 30.18 24.7502 29.25C24.4502 28.32 24.1802 27.45 23.9402 26.58C23.7002 25.74 23.4902 24.96 23.2802 24.24H23.2202C22.9502 25.53 22.6202 26.82 22.2002 28.11C21.7502 29.55 21.3002 31.05 20.8202 32.55C20.4302 34.08 19.9502 35.49 19.5002 36.75Z" fill="#9999FF"/>
<path d="M56.1002 40.0198H46.5901C46.7102 40.9499 47.0102 41.8799 47.5202 42.6899C48.0602 43.4999 48.8102 44.1299 49.7102 44.4899C50.9101 44.9999 52.2302 45.2699 53.5502 45.2398C54.6001 45.2099 55.6502 45.1199 56.6701 44.9099C57.6002 44.7898 58.5002 44.5499 59.3402 44.2199C59.4902 44.0999 59.5802 44.1598 59.5802 44.4599V49.0499C59.5802 49.1699 59.5501 49.2898 59.5202 49.4099C59.4601 49.4999 59.4002 49.5598 59.3102 49.6199C58.3502 50.0399 57.3602 50.3399 56.3101 50.5199C54.9002 50.7899 53.4902 50.9098 52.0502 50.8799C49.7702 50.8799 47.8501 50.5199 46.2902 49.8298C44.8202 49.1998 43.5301 48.2098 42.5102 46.9799C41.5501 45.8099 40.8602 44.4899 40.4402 43.0499C40.0201 41.6398 39.8102 40.1699 39.8102 38.6698C39.8102 37.0498 40.0502 35.4599 40.5601 33.8998C41.0402 32.3999 41.7902 31.0198 42.8101 29.7899C43.8001 28.5898 45.0302 27.6299 46.4402 26.9399C47.8501 26.2498 49.5302 26.0099 51.4501 26.0099C53.0402 25.9798 54.6302 26.2799 56.1002 26.9399C57.3302 27.4799 58.4102 28.2899 59.2502 29.3399C60.0302 30.3599 60.6602 31.4999 61.0502 32.7599C61.4401 33.9599 61.6201 35.1899 61.6201 36.4198C61.6201 37.1398 61.5902 37.7698 61.5602 38.3399C61.5002 38.9099 61.4702 39.3299 61.4401 39.5999C61.4102 39.8099 61.2302 39.9899 61.0202 39.9899C60.8402 39.9899 60.5102 40.0198 60.0302 40.0499C59.5501 40.1098 58.9802 40.1399 58.2901 40.1399C57.6002 40.1399 56.8802 40.0198 56.1002 40.0198ZM46.5901 35.6399H52.9202C53.7001 35.6399 54.2702 35.6399 54.6302 35.6098C54.8701 35.5799 55.1102 35.5198 55.3201 35.3699V35.0698C55.3201 34.6799 55.2602 34.3199 55.1401 33.9599C54.6001 32.2798 53.0102 31.1399 51.2402 31.1998C49.5902 31.1098 48.0301 31.9799 47.2502 33.4799C46.8902 34.1698 46.6801 34.8898 46.5901 35.6399Z" fill="#9999FF"/>
</g>
<defs>
<clipPath id="clip0_177_484">
<rect width="72" height="72" fill="white"/>
</clipPath>
</defs>
</svg>
