<svg width="72" height="72" viewBox="0 0 72 72" fill="none" xmlns="http://www.w3.org/2000/svg">
<path d="M36 72C55.8822 72 72 55.8823 72 36C72 16.1178 55.8822 0 36 0C16.1178 0 0 16.1178 0 36C0 55.8823 16.1178 72 36 72Z" fill="#7D2AE7"/>
<path d="M36 72C55.8822 72 72 55.8823 72 36C72 16.1178 55.8822 0 36 0C16.1178 0 0 16.1178 0 36C0 55.8823 16.1178 72 36 72Z" fill="url(#paint0_radial_177_536)"/>
<path d="M36 72C55.8822 72 72 55.8823 72 36C72 16.1178 55.8822 0 36 0C16.1178 0 0 16.1178 0 36C0 55.8823 16.1178 72 36 72Z" fill="url(#paint1_radial_177_536)"/>
<path d="M36 72C55.8822 72 72 55.8823 72 36C72 16.1178 55.8822 0 36 0C16.1178 0 0 16.1178 0 36C0 55.8823 16.1178 72 36 72Z" fill="url(#paint2_radial_177_536)"/>
<path d="M36 72C55.8822 72 72 55.8823 72 36C72 16.1178 55.8822 0 36 0C16.1178 0 0 16.1178 0 36C0 55.8823 16.1178 72 36 72Z" fill="url(#paint3_radial_177_536)"/>
<path d="M51.5421 43.3857C51.245 43.3857 50.9836 43.6365 50.7115 44.1845C47.6389 50.4147 42.3322 54.8231 36.1912 54.8231C29.0904 54.8231 24.6932 48.4131 24.6932 39.5579C24.6932 24.5579 33.0508 15.8852 40.3916 15.8852C43.8218 15.8852 45.9166 18.0409 45.9166 21.4712C45.9166 25.5426 43.6036 27.6983 43.6036 29.1342C43.6036 29.7787 44.0045 30.169 44.7995 30.169C47.9936 30.169 51.7426 26.4987 51.7426 21.3137C51.7426 16.2862 47.3669 12.5908 40.0263 12.5908C27.8945 12.5908 17.1127 23.8382 17.1127 39.4002C17.1127 51.4463 23.9914 59.4064 34.6049 59.4064C45.87 59.4064 52.3837 48.1983 52.3837 44.5604C52.3837 43.7547 51.9718 43.3857 51.5421 43.3857Z" fill="white"/>
<defs>
<radialGradient id="paint0_radial_177_536" cx="0" cy="0" r="1" gradientUnits="userSpaceOnUse" gradientTransform="translate(13.9077 63.8152) rotate(-49.416) scale(55.686 55.686)">
<stop stop-color="#6420FF"/>
<stop offset="1" stop-color="#6420FF" stop-opacity="0"/>
</radialGradient>
<radialGradient id="paint1_radial_177_536" cx="0" cy="0" r="1" gradientUnits="userSpaceOnUse" gradientTransform="translate(19.0609 8.18508) rotate(54.703) scale(62.7961 62.7961)">
<stop stop-color="#00C4CC"/>
<stop offset="1" stop-color="#00C4CC" stop-opacity="0"/>
</radialGradient>
<radialGradient id="paint2_radial_177_536" cx="0" cy="0" r="1" gradientUnits="userSpaceOnUse" gradientTransform="translate(13.9074 63.8147) rotate(-45.1954) scale(55.0118 25.3007)">
<stop stop-color="#6420FF"/>
<stop offset="1" stop-color="#6420FF" stop-opacity="0"/>
</radialGradient>
<radialGradient id="paint3_radial_177_536" cx="0" cy="0" r="1" gradientUnits="userSpaceOnUse" gradientTransform="translate(29.4442 9.70104) rotate(66.5198) scale(56.6853 94.9601)">
<stop stop-color="#00C4CC" stop-opacity="0.725916"/>
<stop offset="0.0001" stop-color="#00C4CC"/>
<stop offset="1" stop-color="#00C4CC" stop-opacity="0"/>
</radialGradient>
</defs>
</svg>
