<svg width="72" height="72" viewBox="0 0 72 72" fill="none" xmlns="http://www.w3.org/2000/svg">
<g clip-path="url(#clip0_177_489)">
<path d="M12.75 0.720459H59.25C66.3 0.720459 72 6.42045 72 13.4704V58.1705C72 65.2204 66.3 70.9205 59.25 70.9205H12.75C5.7 70.9205 0 65.2204 0 58.1705V13.4704C0 6.42045 5.7 0.720459 12.75 0.720459Z" fill="#001E36"/>
<path d="M16.2 49.9504V19.0804C16.2 18.8703 16.29 18.7503 16.5 18.7503C17.01 18.7503 17.49 18.7503 18.18 18.7204C18.9 18.6903 19.65 18.6903 20.46 18.6603C21.27 18.6304 22.14 18.6304 23.07 18.6003C24 18.5703 24.9 18.5703 25.8 18.5703C28.26 18.5703 30.3 18.8703 31.98 19.5003C33.48 20.0103 34.86 20.8503 36 21.9604C36.96 22.9203 37.71 24.0903 38.19 25.3804C38.64 26.6404 38.88 27.9303 38.88 29.2803C38.88 31.8604 38.28 33.9903 37.08 35.6703C35.88 37.3504 34.2 38.6104 32.25 39.3304C30.21 40.0803 27.96 40.3503 25.5 40.3503C24.78 40.3503 24.3 40.3503 24 40.3204C23.7 40.2903 23.28 40.2903 22.71 40.2903V49.9203C22.74 50.1304 22.59 50.3104 22.38 50.3403C22.35 50.3403 22.32 50.3403 22.26 50.3403H16.56C16.32 50.3403 16.2 50.2204 16.2 49.9504ZM22.74 24.5403V34.6203C23.16 34.6504 23.55 34.6803 23.91 34.6803H25.5C26.67 34.6803 27.84 34.5003 28.95 34.1403C29.91 33.8703 30.75 33.3004 31.41 32.5503C32.04 31.8003 32.34 30.7804 32.34 29.4603C32.37 28.5304 32.13 27.6003 31.65 26.7903C31.14 26.0104 30.42 25.4103 29.55 25.0803C28.44 24.6303 27.24 24.4503 26.01 24.4804C25.23 24.4804 24.54 24.4804 23.97 24.5103C23.37 24.4804 22.95 24.5103 22.74 24.5403Z" fill="#31A8FF"/>
<path d="M57.6 32.7903C56.7 32.3103 55.74 31.9803 54.72 31.7703C53.61 31.5303 52.5 31.3802 51.36 31.3802C50.76 31.3503 50.13 31.4403 49.56 31.5903C49.17 31.6803 48.84 31.8903 48.63 32.1903C48.48 32.4303 48.39 32.7302 48.39 33.0002C48.39 33.2702 48.51 33.5402 48.69 33.7803C48.96 34.1103 49.32 34.3803 49.71 34.5903C50.4 34.9503 51.12 35.2803 51.84 35.5803C53.46 36.1203 55.02 36.8703 56.46 37.7703C57.45 38.4003 58.26 39.2403 58.83 40.2603C59.31 41.2203 59.55 42.2703 59.52 43.3503C59.55 44.7603 59.13 46.1703 58.35 47.3403C57.51 48.5403 56.34 49.4703 54.99 50.0103C53.52 50.6403 51.72 50.9703 49.56 50.9703C48.18 50.9703 46.83 50.8503 45.48 50.5803C44.43 50.4003 43.38 50.0703 42.42 49.6203C42.21 49.5003 42.06 49.2903 42.09 49.0503V43.8303C42.09 43.7403 42.12 43.6203 42.21 43.5603C42.3 43.5003 42.39 43.5302 42.48 43.5903C43.65 44.2803 44.88 44.7603 46.2 45.0603C47.34 45.3603 48.54 45.5103 49.74 45.5103C50.88 45.5103 51.69 45.3603 52.23 45.0903C52.71 44.8802 53.04 44.3703 53.04 43.8303C53.04 43.4103 52.8 43.0203 52.32 42.6302C51.84 42.2403 50.85 41.7903 49.38 41.2203C47.85 40.6803 46.44 39.9603 45.12 39.0603C44.19 38.4003 43.41 37.5303 42.84 36.5103C42.36 35.5503 42.12 34.5003 42.15 33.4502C42.15 32.1603 42.51 30.9303 43.17 29.8203C43.92 28.6203 45.03 27.6603 46.32 27.0603C47.73 26.3403 49.5 26.0103 51.63 26.0103C52.86 26.0103 54.12 26.1003 55.35 26.2803C56.25 26.4003 57.12 26.6403 57.93 26.9703C58.05 27.0003 58.17 27.1203 58.23 27.2403C58.26 27.3603 58.29 27.4803 58.29 27.6003V32.4903C58.29 32.6103 58.23 32.7303 58.14 32.7903C57.87 32.8503 57.72 32.8503 57.6 32.7903Z" fill="#31A8FF"/>
</g>
<defs>
<clipPath id="clip0_177_489">
<rect width="72" height="72" fill="white"/>
</clipPath>
</defs>
</svg>
