<svg width="36" height="36" viewBox="0 0 36 36" fill="none" xmlns="http://www.w3.org/2000/svg">
<path d="M16.455 30.5852C18.255 28.7852 19.155 25.9352 18.735 23.3252C18.375 21.0752 17.07 19.2752 15.075 18.2852C13.17 17.3252 10.59 17.4752 8.68501 18.6602C6.93001 19.7402 5.97001 21.4952 5.97001 23.5952C5.97001 24.0452 6.00001 24.4802 6.03001 24.8852C6.15001 26.4302 6.19501 27.0152 3.82501 28.2002C3.34501 28.4402 3.03001 28.9052 3.00001 29.4302C2.97001 29.9552 3.21001 30.4652 3.64501 30.7652C5.14501 31.8002 7.78501 33.0002 10.575 33.0002C12.6 33.0002 14.685 32.3702 16.455 30.6002V30.5852Z" fill="#FAF5EC"/>
<path d="M25.005 4.36493L13.185 16.1849C14.1 16.2899 14.97 16.5299 15.75 16.9199C18.015 18.0599 19.53 20.0399 20.085 22.5149L31.62 10.9799C33.45 9.14993 33.45 6.17993 31.62 4.36493C29.79 2.54993 26.82 2.53493 25.005 4.36493Z" fill="#FAF5EC"/>
</svg>
