<svg width="36" height="36" viewBox="0 0 36 36" fill="none" xmlns="http://www.w3.org/2000/svg">
<circle cx="18" cy="18" r="18" fill="#FAF5EC"/>
<path d="M29.0742 26.0176C28.6312 26.0176 28.3359 25.7223 28.3359 25.2793V15.6816C28.3359 15.2387 28.6312 14.9434 29.0742 14.9434C29.5172 14.9434 29.8125 15.2387 29.8125 15.6816V25.2793C29.8125 25.7223 29.5172 26.0176 29.0742 26.0176Z" fill="#C68290"/>
<path d="M18 22.326C17.8523 22.326 17.7785 22.326 17.6309 22.2522L6.55664 16.3459C6.33516 16.1983 6.1875 15.9768 6.1875 15.6815C6.1875 15.3862 6.33516 15.1647 6.55664 15.017L17.6309 9.11074C17.8523 8.96309 18.0738 8.96309 18.2953 9.11074L29.3695 15.017C29.591 15.1647 29.7387 15.3862 29.7387 15.6815C29.7387 15.9768 29.591 16.1983 29.3695 16.3459L18.2953 22.2522C18.2215 22.326 18.1477 22.326 18 22.326Z" fill="#C68290"/>
<path d="M19.0336 23.5071C18.7383 23.7286 18.3691 23.8024 18 23.8024C17.6309 23.8024 17.2617 23.7286 16.9664 23.5071L10.6172 20.1848V23.0641C10.6172 25.3528 14.2348 27.4938 18 27.4938C21.7652 27.4938 25.3828 25.3528 25.3828 23.0641V20.1848L19.0336 23.5071Z" fill="#C68290"/>
</svg>
