<svg width="14" height="11" viewBox="0 0 14 11" fill="none" xmlns="http://www.w3.org/2000/svg">
<path d="M5.16663 5.33331C5.16663 4.50491 5.83823 3.83331 6.66663 3.83331C7.49503 3.83331 8.16663 4.50491 8.16663 5.33331C8.16663 6.16171 7.49503 6.83331 6.66663 6.83331C5.83823 6.83331 5.16663 6.16171 5.16663 5.33331Z" fill="#C68290"/>
<path fill-rule="evenodd" clip-rule="evenodd" d="M0 5.33333C0 6.42627 0.283307 6.79433 0.849927 7.53047C1.98131 9.00027 3.87874 10.6667 6.66667 10.6667C9.4546 10.6667 11.352 9.00027 12.4834 7.53047C13.05 6.79433 13.3333 6.42627 13.3333 5.33333C13.3333 4.2404 13.05 3.87235 12.4834 3.13622C11.352 1.66637 9.4546 0 6.66667 0C3.87874 0 1.98131 1.66637 0.849927 3.13622C0.283307 3.87235 0 4.2404 0 5.33333ZM6.66667 2.83333C5.28595 2.83333 4.16667 3.95262 4.16667 5.33333C4.16667 6.71407 5.28595 7.83333 6.66667 7.83333C8.0474 7.83333 9.16667 6.71407 9.16667 5.33333C9.16667 3.95262 8.0474 2.83333 6.66667 2.83333Z" fill="#C68290"/>
</svg>
