<svg width="32" height="32" viewBox="0 0 32 32" fill="none" xmlns="http://www.w3.org/2000/svg">
<rect width="32" height="32" rx="6" fill="#FAF5EC"/>
<path d="M22.8571 4H9.14286C6.30254 4 4 6.30254 4 9.14286V22.8571C4 25.6975 6.30254 28 9.14286 28H22.8571C25.6975 28 28 25.6975 28 22.8571V9.14286C28 6.30254 25.6975 4 22.8571 4Z" fill="url(#paint0_radial_235_37)"/>
<path d="M22.8571 4H9.14286C6.30254 4 4 6.30254 4 9.14286V22.8571C4 25.6975 6.30254 28 9.14286 28H22.8571C25.6975 28 28 25.6975 28 22.8571V9.14286C28 6.30254 25.6975 4 22.8571 4Z" fill="url(#paint1_radial_235_37)"/>
<path d="M22.8571 4H9.14286C6.30254 4 4 6.30254 4 9.14286V22.8571C4 25.6975 6.30254 28 9.14286 28H22.8571C25.6975 28 28 25.6975 28 22.8571V9.14286C28 6.30254 25.6975 4 22.8571 4Z" fill="url(#paint2_radial_235_37)"/>
<path d="M22 11.2857C22 11.9958 21.4244 12.5714 20.7143 12.5714C20.0042 12.5714 19.4286 11.9958 19.4286 11.2857C19.4286 10.5756 20.0042 10 20.7143 10C21.4244 10 22 10.5756 22 11.2857Z" fill="white"/>
<path fill-rule="evenodd" clip-rule="evenodd" d="M16 20.2858C18.3669 20.2858 20.2857 18.367 20.2857 16.0001C20.2857 13.6332 18.3669 11.7144 16 11.7144C13.6331 11.7144 11.7143 13.6332 11.7143 16.0001C11.7143 18.367 13.6331 20.2858 16 20.2858ZM16 18.5715C17.4202 18.5715 18.5714 17.4203 18.5714 16.0001C18.5714 14.5799 17.4202 13.4286 16 13.4286C14.5798 13.4286 13.4286 14.5799 13.4286 16.0001C13.4286 17.4203 14.5798 18.5715 16 18.5715Z" fill="white"/>
<path fill-rule="evenodd" clip-rule="evenodd" d="M7.42859 15.6573C7.42859 12.777 7.42859 11.3369 7.98913 10.2368C8.48219 9.26907 9.26894 8.48231 10.2366 7.98925C11.3367 7.42871 12.7769 7.42871 15.6572 7.42871H16.3429C19.2231 7.42871 20.6633 7.42871 21.7634 7.98925C22.7311 8.48231 23.5178 9.26907 24.0109 10.2368C24.5714 11.3369 24.5714 12.777 24.5714 15.6573V16.343C24.5714 19.2233 24.5714 20.6634 24.0109 21.7635C23.5178 22.7312 22.7311 23.518 21.7634 24.011C20.6633 24.5716 19.2231 24.5716 16.3429 24.5716H15.6572C12.7769 24.5716 11.3367 24.5716 10.2366 24.011C9.26894 23.518 8.48219 22.7312 7.98913 21.7635C7.42859 20.6634 7.42859 19.2233 7.42859 16.343V15.6573ZM15.6572 9.143H16.3429C17.8113 9.143 18.8095 9.14433 19.5811 9.20737C20.3327 9.26877 20.717 9.38007 20.9852 9.51669C21.6302 9.8454 22.1547 10.3699 22.4834 11.015C22.6201 11.2831 22.7314 11.6675 22.7928 12.4191C22.8558 13.1907 22.8572 14.1888 22.8572 15.6573V16.343C22.8572 17.8115 22.8558 18.8096 22.7928 19.5812C22.7314 20.3328 22.6201 20.7172 22.4834 20.9853C22.1547 21.6304 21.6302 22.1549 20.9852 22.4836C20.717 22.6202 20.3327 22.7315 19.5811 22.7929C18.8095 22.8559 17.8113 22.8573 16.3429 22.8573H15.6572C14.1887 22.8573 13.1906 22.8559 12.419 22.7929C11.6673 22.7315 11.283 22.6202 11.0149 22.4836C10.3698 22.1549 9.84528 21.6304 9.51656 20.9853C9.37995 20.7172 9.26865 20.3328 9.20725 19.5812C9.14421 18.8096 9.14287 17.8115 9.14287 16.343V15.6573C9.14287 14.1888 9.14421 13.1907 9.20725 12.4191C9.26865 11.6675 9.37995 11.2831 9.51656 11.015C9.84528 10.3699 10.3698 9.8454 11.0149 9.51669C11.283 9.38007 11.6673 9.26877 12.419 9.20737C13.1906 9.14433 14.1887 9.143 15.6572 9.143Z" fill="white"/>
<defs>
<radialGradient id="paint0_radial_235_37" cx="0" cy="0" r="1" gradientUnits="userSpaceOnUse" gradientTransform="translate(12.5714 22) rotate(-55.3758) scale(21.8739)">
<stop stop-color="#B13589"/>
<stop offset="0.79309" stop-color="#C62F94"/>
<stop offset="1" stop-color="#8A3AC8"/>
</radialGradient>
<radialGradient id="paint1_radial_235_37" cx="0" cy="0" r="1" gradientUnits="userSpaceOnUse" gradientTransform="translate(11.7143 28.8571) rotate(-65.1363) scale(19.3665)">
<stop stop-color="#E0E8B7"/>
<stop offset="0.444662" stop-color="#FB8A2E"/>
<stop offset="0.71474" stop-color="#E2425C"/>
<stop offset="1" stop-color="#E2425C" stop-opacity="0"/>
</radialGradient>
<radialGradient id="paint2_radial_235_37" cx="0" cy="0" r="1" gradientUnits="userSpaceOnUse" gradientTransform="translate(2.71429 4.85714) rotate(-8.1301) scale(33.3351 7.13002)">
<stop offset="0.156701" stop-color="#406ADC"/>
<stop offset="0.467799" stop-color="#6A45BE"/>
<stop offset="1" stop-color="#6A45BE" stop-opacity="0"/>
</radialGradient>
</defs>
</svg>
