<svg width="32" height="32" viewBox="0 0 32 32" fill="none" xmlns="http://www.w3.org/2000/svg">
<rect width="32" height="32" rx="6" fill="#FAF5EC"/>
<path d="M24.45 24.448C24.45 24.4491 24.4491 24.45 24.448 24.45H22.672C21.69 24.45 20.894 23.6539 20.894 22.672V18.88C20.894 17.552 20.87 15.842 19.044 15.842C17.192 15.842 16.908 17.29 16.908 18.782V22.672C16.908 23.6539 16.112 24.45 15.13 24.45C14.148 24.45 13.352 23.6539 13.352 22.672V14.703C13.352 13.7602 14.1163 12.996 15.059 12.996H15.983C16.4154 12.996 16.766 13.3466 16.766 13.779V14.5315C16.766 14.5483 16.7797 14.562 16.7965 14.562C16.8073 14.562 16.8174 14.5562 16.8229 14.5469C17.521 13.368 18.8118 12.6622 20.182 12.712C23.786 12.712 24.452 15.082 24.452 18.168L24.45 24.448ZM9.34 11.43C8.79375 11.4274 8.27059 11.2094 7.88414 10.8233C7.49769 10.4372 7.27915 9.91426 7.276 9.36801C7.276 8.23601 8.208 7.30402 9.34 7.30402C10.472 7.30402 11.402 8.23601 11.404 9.36801C11.404 10.5 10.472 11.43 9.34 11.43ZM11.118 22.67C11.118 23.653 10.3211 24.45 9.338 24.45C8.35493 24.45 7.558 23.653 7.558 22.67V14.776C7.558 13.7929 8.35493 12.996 9.338 12.996C10.3211 12.996 11.118 13.7929 11.118 14.776V22.67ZM26.221 4.00102C26.2204 4.00039 26.2195 4.00003 26.2186 4.00003H5.77C5.3063 3.99734 4.86027 4.17775 4.52885 4.50206C4.19742 4.82637 4.00737 5.26838 4 5.73202V26.268C4.00737 26.7316 4.19742 27.1736 4.52885 27.4979C4.86027 27.8222 5.3063 28.0026 5.77 27.9999H26.222C26.6868 28.0037 27.1342 27.8239 27.4672 27.4996C27.8001 27.1753 27.9916 26.7327 28 26.268V5.73002C27.9916 5.26568 27.8 4.82348 27.4669 4.49981C27.1342 4.17646 26.6873 3.99757 26.2234 4.00202C26.2225 4.00202 26.2216 4.00167 26.221 4.00102Z" fill="#0A66C2"/>
</svg>
