<svg width="36" height="36" viewBox="0 0 36 36" fill="none" xmlns="http://www.w3.org/2000/svg">
<path fill-rule="evenodd" clip-rule="evenodd" d="M7.5 4.5C6.30653 4.5 5.16193 4.97411 4.31802 5.81802C3.47411 6.66193 3 7.80653 3 9V22.5C3 23.6935 3.47411 24.8381 4.31802 25.682C5.16193 26.5259 6.30653 27 7.5 27C7.89783 27 8.27936 27.158 8.56066 27.4393C8.84196 27.7206 9 28.1022 9 28.5V29.955C9 32.4435 11.856 33.849 13.83 32.331L20.355 27.3105C20.6174 27.1089 20.9391 26.9997 21.27 27H28.5C29.6935 27 30.8381 26.5259 31.682 25.682C32.5259 24.8381 33 23.6935 33 22.5V9C33 7.80653 32.5259 6.66193 31.682 5.81802C30.8381 4.97411 29.6935 4.5 28.5 4.5H7.5Z" fill="#C68290"/>
</svg>
