<svg width="36" height="36" viewBox="0 0 36 36" fill="none" xmlns="http://www.w3.org/2000/svg">
<circle cx="18" cy="18" r="18" fill="#FAF5EC"/>
<path d="M6.1875 13.2188C6.1875 11.5453 6.1875 10.7086 6.5088 10.0691C6.79198 9.50653 7.24396 9.04917 7.79991 8.76263C8.43187 8.4375 9.25875 8.4375 10.9125 8.4375H12.6029C13.7132 8.4375 14.2673 8.4375 14.7705 8.59289C15.2161 8.72957 15.6307 8.95378 15.9907 9.2527C16.3982 9.59098 16.7053 10.0583 17.3208 10.9919L18 12.0234H25.0875C26.7412 12.0234 27.5681 12.0234 28.2001 12.3486C28.7556 12.6353 29.2071 13.0927 29.49 13.655C29.8125 14.2945 29.8125 15.1312 29.8125 16.8047V22.7812C29.8125 24.4547 29.8125 25.2914 29.49 25.9309C29.2069 26.4928 28.7554 26.9497 28.2001 27.2362C27.5681 27.5625 26.7412 27.5625 25.0875 27.5625H10.9125C9.25875 27.5625 8.43187 27.5625 7.79991 27.2362C7.24414 26.9499 6.79218 26.493 6.5088 25.9309C6.1875 25.2914 6.1875 24.4547 6.1875 22.7812V13.2188Z" fill="#C68290"/>
</svg>
