<svg width="36" height="36" viewBox="0 0 36 36" fill="none" xmlns="http://www.w3.org/2000/svg">
<path fill-rule="evenodd" clip-rule="evenodd" d="M21.2948 1.25776C20.1233 1.09651 19.1033 1.81426 18.7335 2.83726C18.3585 3.87226 17.7638 5.67226 17.3348 7.73176C17.7456 7.92536 18.1498 8.13272 18.5468 8.35351C22.3801 10.4941 25.5434 13.6575 27.684 17.4908C27.9038 17.886 28.116 18.2895 28.3103 18.7013C29.9703 18.3487 31.604 17.8816 33.1995 17.3033C34.2225 16.9335 34.9395 15.9135 34.779 14.742C33.8393 7.92226 28.1153 2.19751 21.2948 1.25776ZM26.2125 19.5293C26.0559 19.2095 25.8906 18.8942 25.7168 18.5835C23.7801 15.1169 20.9191 12.2559 17.4525 10.3193C17.138 10.1442 16.8184 9.97864 16.494 9.82276C13.2188 10.0403 10.6283 10.3965 8.88151 10.692C6.88501 11.0295 5.33701 12.4995 4.78126 14.3925C3.30001 19.4393 2.40376 23.5163 1.87501 26.3393C1.67089 27.4209 1.49084 28.5069 1.33501 29.5965C1.28562 29.9452 1.24062 30.2945 1.20001 30.6443C0.97201 31.4618 1.16401 32.2598 1.52776 32.9168L11.2043 23.2418C10.8611 22.5233 10.783 21.7067 10.9837 20.9363C11.1844 20.1658 11.651 19.4911 12.301 19.0315C12.9511 18.5718 13.7427 18.3567 14.536 18.4243C15.3293 18.4918 16.0732 18.8376 16.6362 19.4006C17.1991 19.9636 17.545 20.7074 17.6125 21.5007C17.6801 22.294 17.465 23.0857 17.0053 23.7357C16.5456 24.3858 15.8709 24.8524 15.1005 25.0531C14.33 25.2538 13.5134 25.1757 12.795 24.8325L3.11926 34.5075C3.77701 34.8713 4.57426 35.0625 5.39026 34.8345L5.58376 34.812C5.77926 34.7895 6.06451 34.752 6.43951 34.6995C7.18801 34.5938 8.28601 34.422 9.69676 34.1588C12.519 33.6315 16.5968 32.7338 21.642 31.2533C23.535 30.6975 25.0058 29.1488 25.3433 27.1523C25.638 25.4033 25.9943 22.8105 26.2125 19.5293Z" fill="#C68290"/>
</svg>
