<svg width="16" height="16" viewBox="0 0 16 16" fill="none" xmlns="http://www.w3.org/2000/svg">
<path d="M12.3334 9.83333L14.42 8.44667C14.4958 8.39933 14.5583 8.3335 14.6016 8.25536C14.6449 8.17722 14.6677 8.08934 14.6677 8C14.6677 7.91066 14.6449 7.82278 14.6016 7.74464C14.5583 7.66651 14.4958 7.60067 14.42 7.55333L12.3334 6.16667C12.2413 6.11098 12.1371 6.07842 12.0297 6.07177C11.9222 6.06512 11.8148 6.08457 11.7166 6.12846C11.6183 6.17235 11.5321 6.23938 11.4654 6.32381C11.3987 6.40825 11.3534 6.50759 11.3334 6.61333V7.33333H2.00004C1.82323 7.33333 1.65366 7.40357 1.52864 7.5286C1.40361 7.65362 1.33337 7.82319 1.33337 8C1.33337 8.17681 1.40361 8.34638 1.52864 8.47141C1.65366 8.59643 1.82323 8.66667 2.00004 8.66667H11.3334V9.38667C11.3534 9.49241 11.3987 9.59175 11.4654 9.67619C11.5321 9.76063 11.6183 9.82765 11.7166 9.87154C11.8148 9.91543 11.9222 9.93488 12.0297 9.92823C12.1371 9.92158 12.2413 9.88902 12.3334 9.83333Z" fill="#FAF5EC"/>
</svg>
