<svg width="36" height="36" viewBox="0 0 36 36" fill="none" xmlns="http://www.w3.org/2000/svg">
<path fill-rule="evenodd" clip-rule="evenodd" d="M9.45014 0.698076C11.7878 0.17856 14.6237 0 18 0C21.3763 0 24.2122 0.17856 26.5498 0.698076C28.908 1.22215 30.8678 2.1168 32.3755 3.62444C33.8832 5.13209 34.7778 7.09204 35.302 9.45013C35.8214 11.7878 36 14.6237 36 18C36 21.3763 35.8214 24.2122 35.302 26.5498C34.7778 28.908 33.8832 30.8678 32.3755 32.3755C30.8678 33.8832 28.908 34.7778 26.5498 35.302C24.2122 35.8214 21.3763 36 18 36C14.6237 36 11.7878 35.8214 9.45014 35.302C7.09204 34.7778 5.13209 33.8832 3.62444 32.3755C2.1168 30.8678 1.22216 28.908 0.698094 26.5498C0.17856 24.2122 0 21.3763 0 18C0 14.6237 0.17856 11.7878 0.698094 9.45013C1.22216 7.09204 2.1168 5.13209 3.62444 3.62444C5.13209 2.1168 7.09204 1.22215 9.45014 0.698076ZM15.3119 8.37475C16.2358 5.88028 19.764 5.88029 20.6879 8.37475L21.8176 11.4251C22.0792 12.1312 22.7525 12.5999 23.5055 12.5999H26.1484C28.7305 12.5999 30.0236 15.7217 28.1979 17.5477L25.4351 20.3103C25.0096 20.736 24.8247 21.346 24.9428 21.9362L25.6072 25.2574C26.0897 27.6709 23.4599 29.497 21.3673 28.2015L18.9473 26.7034C18.3668 26.3441 17.633 26.3441 17.0525 26.7034L14.6326 28.2015C12.5399 29.497 9.91008 27.6709 10.3927 25.2574L11.057 21.9362C11.175 21.346 10.9903 20.736 10.5648 20.3103L7.72711 17.4728C5.92893 15.6746 7.20248 12.5999 9.74549 12.5999H12.4943C13.2473 12.5999 13.9207 12.1312 14.1822 11.4251L15.3119 8.37475Z" fill="#C68290"/>
</svg>
