<svg width="36" height="36" viewBox="0 0 36 36" fill="none" xmlns="http://www.w3.org/2000/svg">
<g clip-path="url(#clip0_222_15)">
<path d="M33 29.7891C33 31.4922 32.5117 32.9531 31.5352 34.1719C30.5586 35.3906 29.3828 36 28.0078 36H7.99219C6.61719 36 5.44141 35.3906 4.46484 34.1719C3.48828 32.9531 3 31.4922 3 29.7891C3 28.4609 3.06641 27.207 3.19922 26.0273C3.33203 24.8477 3.57813 23.6602 3.9375 22.4648C4.29688 21.2695 4.75391 20.2461 5.30859 19.3945C5.86328 18.543 6.59766 17.8477 7.51172 17.3086C8.42578 16.7695 9.47656 16.5 10.6641 16.5C12.7109 18.5 15.1563 19.5 18 19.5C20.8438 19.5 23.2891 18.5 25.3359 16.5C26.5234 16.5 27.5742 16.7695 28.4883 17.3086C29.4023 17.8477 30.1367 18.543 30.6914 19.3945C31.2461 20.2461 31.7031 21.2695 32.0625 22.4648C32.4219 23.6602 32.668 24.8477 32.8008 26.0273C32.9336 27.207 33 28.4609 33 29.7891ZM27 9C27 11.4844 26.1211 13.6055 24.3633 15.3633C22.6055 17.1211 20.4844 18 18 18C15.5156 18 13.3945 17.1211 11.6367 15.3633C9.87891 13.6055 9 11.4844 9 9C9 6.51562 9.87891 4.39453 11.6367 2.63672C13.3945 0.878906 15.5156 0 18 0C20.4844 0 22.6055 0.878906 24.3633 2.63672C26.1211 4.39453 27 6.51562 27 9Z" fill="#FAF5EC"/>
</g>
<defs>
<clipPath id="clip0_222_15">
<rect width="36" height="36" fill="white"/>
</clipPath>
</defs>
</svg>
