<svg width="32" height="32" viewBox="0 0 32 32" fill="none" xmlns="http://www.w3.org/2000/svg">
<rect width="32" height="32" rx="6" fill="#FAF5EC"/>
<g clip-path="url(#clip0_235_23)">
<path d="M24.4651 7.48769C22.2189 5.23993 19.2321 4.00137 16.0499 4C9.49242 4 4.15597 9.33475 4.15334 15.8919C4.15258 17.9879 4.70024 20.034 5.7412 21.8375L4.05347 28L10.36 26.3464C12.0975 27.294 14.0539 27.7933 16.0448 27.7941H16.0498H16.0499C22.6063 27.7941 27.9435 22.4584 27.9463 15.9016C27.9474 12.7236 26.711 9.73561 24.4651 7.48769ZM16.0499 25.7855H16.046C14.2715 25.7846 12.5313 25.3081 11.0134 24.4075L10.6521 24.1933L6.90974 25.1745L7.90891 21.527L7.67356 21.1531C6.6837 19.5792 6.16113 17.7603 6.16187 15.8927C6.16405 10.4426 10.5995 6.00867 16.0536 6.00867C18.6948 6.00976 21.1772 7.03926 23.0442 8.90753C24.911 10.7758 25.9384 13.2594 25.9376 15.9007C25.9353 21.351 21.4997 25.7855 16.0499 25.7855Z" fill="#E0E0E0"/>
<path d="M4.59961 27.3163L6.21025 21.4353C5.21659 19.7141 4.69404 17.7614 4.69467 15.7615C4.69727 9.504 9.79001 4.41309 16.0474 4.41309C19.0844 4.41446 21.9348 5.59638 24.0779 7.74152C26.2215 9.88664 27.4013 12.738 27.4001 15.7704C27.3975 22.0281 22.3044 27.1194 16.0478 27.1194C16.0474 27.1194 16.0481 27.1194 16.0478 27.1194H16.0428C14.1428 27.1188 12.276 26.6419 10.6179 25.7382L4.59961 27.3163Z" fill="url(#paint0_linear_235_23)"/>
<path fill-rule="evenodd" clip-rule="evenodd" d="M13.1102 10.8432C12.8901 10.3539 12.6584 10.3441 12.449 10.3355C12.2777 10.3282 12.0816 10.3286 11.8859 10.3286C11.6899 10.3286 11.3716 10.4022 11.1023 10.6963C10.833 10.9903 10.0738 11.7011 10.0738 13.1467C10.0738 14.5925 11.1268 15.9895 11.2736 16.1857C11.4206 16.3817 13.3064 19.4432 16.293 20.6209C18.7752 21.5998 19.2803 21.4051 19.8191 21.3561C20.3578 21.3071 21.5575 20.6454 21.8024 19.9593C22.0473 19.2732 22.0473 18.6852 21.9738 18.5623C21.9004 18.4398 21.7045 18.3664 21.4106 18.2194C21.1167 18.0725 19.6721 17.3615 19.4028 17.2636C19.1334 17.1656 18.9375 17.1166 18.7415 17.4108C18.5456 17.7047 17.9828 18.3664 17.8114 18.5623C17.64 18.7586 17.4685 18.7831 17.1747 18.6362C16.8808 18.4888 15.9344 18.1788 14.8117 17.1778C13.9382 16.3991 13.3485 15.4372 13.1771 15.1431C13.0056 14.8492 13.1587 14.69 13.3061 14.5435C13.438 14.4119 13.6 14.2005 13.7469 14.0289C13.8935 13.8574 13.9425 13.7349 14.0405 13.539C14.1384 13.3428 14.0894 13.1712 14.016 13.0243C13.9425 12.8773 13.3714 11.4242 13.1102 10.8432Z" fill="white"/>
<path d="M24.3679 7.45011C22.1475 5.22815 19.195 4.00383 16.0493 4.00244C9.56713 4.00244 4.29194 9.27595 4.28933 15.7578C4.28857 17.8298 4.82994 19.8523 5.85895 21.6352L4.19061 27.7269L10.4247 26.0922C12.1423 27.029 14.0762 27.5226 16.0443 27.5233H16.0493H16.0493C22.5305 27.5233 27.8064 22.2489 27.8092 15.7673C27.8103 12.6259 26.5881 9.67222 24.3679 7.45011ZM16.0493 25.5379H16.0455C14.2913 25.537 12.5711 25.066 11.0706 24.1757L10.7135 23.964L7.01409 24.9339L8.00178 21.3283L7.76913 20.9587C6.79063 19.4028 6.27406 17.6048 6.27482 15.7586C6.27696 10.3711 10.6615 5.98809 16.053 5.98809C18.6639 5.98916 21.1178 7.00685 22.9633 8.85367C24.8088 10.7005 25.8243 13.1555 25.8236 15.7666C25.8212 21.1543 21.4366 25.5379 16.0493 25.5379Z" fill="white"/>
</g>
<defs>
<linearGradient id="paint0_linear_235_23" x1="15.9999" y1="27.3163" x2="15.9999" y2="4.41312" gradientUnits="userSpaceOnUse">
<stop stop-color="#20B038"/>
<stop offset="1" stop-color="#60D66A"/>
</linearGradient>
<clipPath id="clip0_235_23">
<rect x="4" y="4" width="24" height="24" rx="6" fill="white"/>
</clipPath>
</defs>
</svg>
