<svg width="10" height="12" viewBox="0 0 10 12" fill="none" xmlns="http://www.w3.org/2000/svg">
<path d="M1.64805 11.936C1.11471 11.936 0.704045 11.776 0.416045 11.456C0.138712 11.1253 4.49419e-05 10.5333 4.49419e-05 9.67997C4.49419e-05 9.27464 0.0427116 8.78931 0.128045 8.22397C0.224045 7.65864 0.352045 7.05597 0.512045 6.41597C0.682712 5.77597 0.874712 5.13597 1.08805 4.49597C1.31204 3.85597 1.55204 3.25864 1.80804 2.70397C2.13871 1.99997 2.47471 1.45597 2.81605 1.07197C3.16805 0.677307 3.53071 0.399974 3.90405 0.239974C4.28805 0.0799742 4.69338 -2.57492e-05 5.12005 -2.57492e-05C5.76005 -2.57492e-05 6.34671 0.197308 6.88005 0.591974C7.42405 0.975974 7.89338 1.65331 8.28804 2.62397C8.52271 3.22131 8.74138 3.89864 8.94405 4.65597C9.15738 5.40264 9.32271 6.18664 9.44005 7.00797C9.56805 7.82931 9.63205 8.63464 9.63205 9.42397C9.63205 10.288 9.45605 10.9226 9.10404 11.328C8.75204 11.7333 8.26138 11.936 7.63205 11.936C7.08805 11.936 6.65605 11.776 6.33605 11.456C6.02671 11.1253 5.83471 10.5866 5.76005 9.83997C5.71738 9.35997 5.69605 8.86397 5.69605 8.35197C5.69605 7.83997 5.71738 7.34931 5.76005 6.87997L6.59205 8.09597C6.29338 8.19197 5.92005 8.25064 5.47205 8.27197C5.03471 8.29331 4.57605 8.28264 4.09605 8.23997C3.62671 8.19731 3.18404 8.11197 2.76804 7.98397L4.03205 6.91197C4.04271 7.43464 4.01605 7.94664 3.95204 8.44797C3.88805 8.93864 3.81338 9.38664 3.72804 9.79197C3.66405 10.2613 3.54671 10.656 3.37604 10.976C3.21604 11.296 2.99205 11.536 2.70405 11.696C2.42671 11.856 2.07471 11.936 1.64805 11.936ZM5.02404 5.93597C5.50405 5.93597 5.87205 5.83464 6.12805 5.63197C6.39471 5.41864 6.52805 5.13597 6.52805 4.78397C6.52805 4.61331 6.49071 4.42131 6.41605 4.20797C6.34138 3.98397 6.24005 3.78131 6.11205 3.59997C5.98405 3.40797 5.82938 3.24797 5.64805 3.11997C5.46671 2.99197 5.26938 2.92797 5.05605 2.92797C4.83205 2.92797 4.62938 2.99731 4.44805 3.13597C4.26671 3.26397 4.11204 3.42931 3.98405 3.63197C3.85605 3.82397 3.74938 4.03731 3.66405 4.27197C3.58938 4.50664 3.55205 4.71997 3.55205 4.91197C3.55205 5.22131 3.68005 5.47197 3.93605 5.66397C4.20271 5.84531 4.56538 5.93597 5.02404 5.93597Z" fill="#C68290"/>
</svg>
