<svg width="114" height="52" viewBox="0 0 114 52" fill="none" xmlns="http://www.w3.org/2000/svg">
<path d="M2.928 23.168C2.128 23.168 1.512 22.928 1.08 22.448C0.664 21.952 0.456 21.064 0.456 19.784C0.456 19.176 0.52 18.448 0.648 17.6C0.792 16.752 0.984 15.848 1.224 14.888C1.48 13.928 1.768 12.968 2.088 12.008C2.424 11.048 2.784 10.152 3.168 9.32C3.664 8.264 4.168 7.448 4.68 6.872C5.208 6.28 5.752 5.864 6.312 5.624C6.888 5.384 7.496 5.264 8.136 5.264C9.096 5.264 9.976 5.56 10.776 6.152C11.592 6.728 12.296 7.744 12.888 9.2C13.24 10.096 13.568 11.112 13.872 12.248C14.192 13.368 14.44 14.544 14.616 15.776C14.808 17.008 14.904 18.216 14.904 19.4C14.904 20.696 14.64 21.648 14.112 22.256C13.584 22.864 12.848 23.168 11.904 23.168C11.088 23.168 10.44 22.928 9.96 22.448C9.496 21.952 9.208 21.144 9.096 20.024C9.032 19.304 9 18.56 9 17.792C9 17.024 9.032 16.288 9.096 15.584L10.344 17.408C9.896 17.552 9.336 17.64 8.664 17.672C8.008 17.704 7.32 17.688 6.6 17.624C5.896 17.56 5.232 17.432 4.608 17.24L6.504 15.632C6.52 16.416 6.48 17.184 6.384 17.936C6.288 18.672 6.176 19.344 6.048 19.952C5.952 20.656 5.776 21.248 5.52 21.728C5.28 22.208 4.944 22.568 4.512 22.808C4.096 23.048 3.568 23.168 2.928 23.168ZM7.992 14.168C8.712 14.168 9.264 14.016 9.648 13.712C10.048 13.392 10.248 12.968 10.248 12.44C10.248 12.184 10.192 11.896 10.08 11.576C9.968 11.24 9.816 10.936 9.624 10.664C9.432 10.376 9.2 10.136 8.928 9.944C8.656 9.752 8.36 9.656 8.04 9.656C7.704 9.656 7.4 9.76 7.128 9.968C6.856 10.16 6.624 10.408 6.432 10.712C6.24 11 6.08 11.32 5.952 11.672C5.84 12.024 5.784 12.344 5.784 12.632C5.784 13.096 5.976 13.472 6.36 13.76C6.76 14.032 7.304 14.168 7.992 14.168ZM20.7276 23.336C19.2076 23.336 18.0156 22.752 17.1516 21.584C16.2876 20.4 15.8556 18.6 15.8556 16.184C15.8556 13.784 16.2716 12.032 17.1036 10.928C17.9356 9.808 19.1196 9.248 20.6556 9.248C21.5996 9.248 22.4236 9.44 23.1276 9.824C23.8316 10.208 24.4636 10.752 25.0236 11.456L24.6876 11.552C24.5756 10.96 24.4716 10.328 24.3756 9.656C24.2796 8.984 24.1996 8.352 24.1356 7.76C24.0716 7.152 24.0396 6.672 24.0396 6.32C24.0396 5.616 24.1916 5.072 24.4956 4.688C24.8156 4.288 25.2956 4.088 25.9356 4.088C26.6876 4.088 27.3036 4.352 27.7836 4.88C28.2636 5.408 28.6236 6.208 28.8636 7.28C29.0396 8 29.1916 8.896 29.3196 9.968C29.4476 11.024 29.5516 12.136 29.6316 13.304C29.7116 14.456 29.7516 15.552 29.7516 16.592C29.7516 18.32 29.6316 19.672 29.3916 20.648C29.1516 21.608 28.8156 22.28 28.3836 22.664C27.9676 23.048 27.4796 23.24 26.9196 23.24C26.2316 23.24 25.7596 22.992 25.5036 22.496C25.2636 22 25.1356 21.192 25.1196 20.072H25.5516C25.1196 21.064 24.4876 21.856 23.6556 22.448C22.8396 23.04 21.8636 23.336 20.7276 23.336ZM22.8636 19.4C23.2476 19.4 23.5996 19.288 23.9196 19.064C24.2556 18.824 24.5196 18.464 24.7116 17.984C24.9036 17.504 24.9996 16.888 24.9996 16.136C24.9996 15.176 24.8236 14.4 24.4716 13.808C24.1196 13.2 23.5676 12.896 22.8156 12.896C22.1916 12.896 21.6876 13.168 21.3036 13.712C20.9356 14.24 20.7516 15.04 20.7516 16.112C20.7516 17.072 20.9436 17.864 21.3276 18.488C21.7116 19.096 22.2236 19.4 22.8636 19.4ZM38.8202 23.192C36.9002 23.192 35.3722 22.928 34.2362 22.4C33.1002 21.872 32.2762 21.112 31.7642 20.12C31.2522 19.128 30.9962 17.944 30.9962 16.568C30.9962 14.824 31.3482 13.344 32.0522 12.128C32.7722 10.896 33.7482 9.952 34.9802 9.296C36.2282 8.64 37.6362 8.312 39.2042 8.312C41.0762 8.312 42.4442 8.696 43.3082 9.464C44.1882 10.232 44.6282 11.24 44.6282 12.488C44.6282 13.48 44.3562 14.336 43.8122 15.056C43.2842 15.776 42.5402 16.336 41.5802 16.736C40.6362 17.12 39.5402 17.312 38.2922 17.312C37.7002 17.312 37.1162 17.264 36.5402 17.168C35.9802 17.056 35.4682 16.912 35.0042 16.736L35.5802 15.464C35.5322 15.848 35.5082 16.232 35.5082 16.616C35.5082 17.416 35.7882 17.984 36.3482 18.32C36.9082 18.656 37.6842 18.824 38.6762 18.824C39.5722 18.824 40.3242 18.736 40.9322 18.56C41.5402 18.368 42.0682 18.184 42.5162 18.008C42.9802 17.832 43.4122 17.744 43.8122 17.744C44.0842 17.744 44.3562 17.816 44.6282 17.96C44.9162 18.088 45.1482 18.296 45.3242 18.584C45.5162 18.872 45.6122 19.248 45.6122 19.712C45.6122 20.352 45.3482 20.936 44.8202 21.464C44.3082 21.992 43.5482 22.416 42.5402 22.736C41.5322 23.04 40.2922 23.192 38.8202 23.192ZM37.4282 14.96C38.2922 14.96 39.0202 14.76 39.6122 14.36C40.2042 13.944 40.5002 13.448 40.5002 12.872C40.5002 12.456 40.3562 12.12 40.0682 11.864C39.7802 11.608 39.3642 11.48 38.8202 11.48C38.2602 11.48 37.7402 11.592 37.2602 11.816C36.7802 12.024 36.3962 12.296 36.1082 12.632C35.8202 12.968 35.6762 13.344 35.6762 13.76C35.6762 14.144 35.8282 14.44 36.1322 14.648C36.4522 14.856 36.8842 14.96 37.4282 14.96ZM49.8998 23.048C49.2278 23.048 48.6838 22.92 48.2678 22.664C47.8678 22.392 47.5478 21.928 47.3078 21.272C47.0518 20.568 46.8598 19.608 46.7318 18.392C46.6198 17.176 46.5638 15.704 46.5638 13.976C46.5638 12.936 46.6038 11.88 46.6838 10.808C46.7798 9.736 46.8998 8.76 47.0438 7.88C47.2038 6.984 47.3718 6.312 47.5478 5.864C47.8198 5.192 48.1238 4.72 48.4598 4.448C48.7958 4.16 49.2038 4.016 49.6838 4.016C50.1958 4.016 50.6198 4.16 50.9558 4.448C51.2918 4.736 51.5398 5.216 51.6998 5.888C51.8118 6.416 51.9078 7.056 51.9878 7.808C52.0678 8.544 52.1078 9.328 52.1078 10.16C52.1078 11.152 52.0518 12.2 51.9398 13.304C51.8278 14.392 51.6758 15.456 51.4838 16.496C51.3078 17.536 51.0918 18.496 50.8358 19.376L49.0358 19.472C49.4838 19.072 49.9878 18.768 50.5478 18.56C51.1078 18.336 51.6278 18.224 52.1078 18.224C52.6838 18.224 53.1318 18.376 53.4518 18.68C53.7718 18.968 53.9318 19.424 53.9318 20.048C53.9318 20.576 53.7478 21.072 53.3798 21.536C53.0278 22 52.5478 22.368 51.9398 22.64C51.3318 22.912 50.6518 23.048 49.8998 23.048ZM57.8109 4.592C58.7069 4.592 59.3469 4.808 59.7309 5.24C60.1309 5.672 60.3309 6.176 60.3309 6.752C60.3309 7.456 60.0909 8 59.6109 8.384C59.1309 8.768 58.4509 8.96 57.5709 8.96C56.7389 8.96 56.1069 8.752 55.6749 8.336C55.2589 7.904 55.0509 7.408 55.0509 6.848C55.0509 6.096 55.3069 5.536 55.8189 5.168C56.3309 4.784 56.9949 4.592 57.8109 4.592ZM58.0269 9.944C58.7469 9.944 59.3069 10.424 59.7069 11.384C60.1229 12.344 60.3309 13.872 60.3309 15.968C60.3309 18.544 60.0749 20.4 59.5629 21.536C59.0669 22.672 58.2989 23.24 57.2589 23.24C56.4589 23.24 55.8669 22.824 55.4829 21.992C55.1149 21.144 54.9309 19.672 54.9309 17.576C54.9309 15 55.2189 13.088 55.7949 11.84C56.3709 10.576 57.1149 9.944 58.0269 9.944ZM73.0307 23.24C72.2147 23.24 71.6707 23.032 71.3987 22.616C71.1267 22.184 70.9907 21.504 70.9907 20.576L71.3507 20.696C70.4867 22.44 68.8227 23.312 66.3587 23.312C65.2387 23.312 64.3107 23.112 63.5747 22.712C62.8387 22.312 62.2867 21.792 61.9187 21.152C61.5667 20.496 61.3907 19.776 61.3907 18.992C61.3907 17.648 61.8787 16.584 62.8547 15.8C63.8307 15.016 65.1267 14.624 66.7427 14.624C67.7507 14.624 68.6307 14.776 69.3827 15.08C70.1507 15.384 70.7907 15.808 71.3027 16.352L70.6307 16.304C70.5987 14.96 70.3347 14.008 69.8387 13.448C69.3427 12.872 68.6227 12.584 67.6787 12.584C67.2467 12.584 66.7987 12.656 66.3347 12.8C65.8707 12.928 65.4067 13.064 64.9427 13.208C64.4947 13.352 64.0387 13.424 63.5747 13.424C62.9987 13.424 62.5507 13.264 62.2307 12.944C61.9107 12.624 61.7507 12.208 61.7507 11.696C61.7507 10.992 62.0547 10.36 62.6627 9.8C63.2707 9.24 64.0707 8.8 65.0627 8.48C66.0707 8.144 67.1587 7.976 68.3267 7.976C69.8147 7.976 71.1027 8.272 72.1907 8.864C73.2947 9.456 74.0867 10.36 74.5667 11.576C74.9347 12.488 75.1907 13.52 75.3347 14.672C75.4947 15.808 75.5747 17.024 75.5747 18.32C75.5747 19.616 75.4867 20.624 75.3107 21.344C75.1507 22.048 74.8787 22.544 74.4947 22.832C74.1267 23.104 73.6387 23.24 73.0307 23.24ZM68.1827 19.952C68.5507 19.952 68.9267 19.896 69.3107 19.784C69.6947 19.656 70.0147 19.48 70.2707 19.256C70.5427 19.032 70.6787 18.752 70.6787 18.416C70.6787 18.112 70.5747 17.864 70.3667 17.672C70.1587 17.464 69.8787 17.32 69.5267 17.24C69.1747 17.144 68.7987 17.096 68.3987 17.096C67.6947 17.096 67.1427 17.232 66.7427 17.504C66.3427 17.776 66.1427 18.128 66.1427 18.56C66.1427 18.976 66.3267 19.312 66.6947 19.568C67.0627 19.824 67.5587 19.952 68.1827 19.952Z" fill="#C68290"/>
<path d="M10.84 33.448C10.84 31.832 11.08 30.68 11.56 29.992C12.04 29.288 12.784 28.936 13.792 28.936C14.448 28.936 14.952 29.104 15.304 29.44C15.672 29.776 15.928 30.224 16.072 30.784C16.216 31.344 16.288 31.968 16.288 32.656C16.288 33.264 16.264 33.976 16.216 34.792C16.184 35.608 16.136 36.44 16.072 37.288C16.024 38.136 15.96 38.928 15.88 39.664H15.976C16.376 37.76 16.76 36.248 17.128 35.128C17.512 33.992 17.904 33.176 18.304 32.68C18.704 32.168 19.128 31.912 19.576 31.912C20.072 31.912 20.52 32.168 20.92 32.68C21.336 33.176 21.736 33.984 22.12 35.104C22.52 36.208 22.944 37.664 23.392 39.472H23.488C23.44 38.688 23.392 37.88 23.344 37.048C23.296 36.216 23.256 35.392 23.224 34.576C23.208 33.744 23.2 32.976 23.2 32.272C23.2 31.216 23.296 30.4 23.488 29.824C23.696 29.248 23.976 28.848 24.328 28.624C24.696 28.4 25.12 28.288 25.6 28.288C26.56 28.288 27.304 28.712 27.832 29.56C28.376 30.408 28.648 31.656 28.648 33.304C28.648 34.392 28.6 35.504 28.504 36.64C28.424 37.776 28.304 38.88 28.144 39.952C27.984 41.024 27.784 42.024 27.544 42.952C27.288 43.976 26.92 44.776 26.44 45.352C25.976 45.912 25.376 46.192 24.64 46.192C24.192 46.192 23.744 46.04 23.296 45.736C22.864 45.432 22.432 44.944 22 44.272C21.584 43.6 21.184 42.712 20.8 41.608C20.432 40.504 20.088 39.152 19.768 37.552H19.648C19.328 39.136 18.976 40.456 18.592 41.512C18.224 42.568 17.832 43.408 17.416 44.032C17 44.64 16.552 45.08 16.072 45.352C15.592 45.608 15.08 45.736 14.536 45.736C13.768 45.736 13.16 45.464 12.712 44.92C12.264 44.376 11.912 43.472 11.656 42.208C11.544 41.616 11.44 40.944 11.344 40.192C11.248 39.424 11.16 38.632 11.08 37.816C11.016 37 10.96 36.216 10.912 35.464C10.864 34.696 10.84 34.024 10.84 33.448ZM33.1234 27.592C34.0194 27.592 34.6594 27.808 35.0434 28.24C35.4434 28.672 35.6434 29.176 35.6434 29.752C35.6434 30.456 35.4034 31 34.9234 31.384C34.4434 31.768 33.7634 31.96 32.8834 31.96C32.0514 31.96 31.4194 31.752 30.9874 31.336C30.5714 30.904 30.3634 30.408 30.3634 29.848C30.3634 29.096 30.6194 28.536 31.1314 28.168C31.6434 27.784 32.3074 27.592 33.1234 27.592ZM33.3394 32.944C34.0594 32.944 34.6194 33.424 35.0194 34.384C35.4354 35.344 35.6434 36.872 35.6434 38.968C35.6434 41.544 35.3874 43.4 34.8754 44.536C34.3794 45.672 33.6114 46.24 32.5714 46.24C31.7714 46.24 31.1794 45.824 30.7954 44.992C30.4274 44.144 30.2434 42.672 30.2434 40.576C30.2434 38 30.5314 36.088 31.1074 34.84C31.6834 33.576 32.4274 32.944 33.3394 32.944ZM37.0872 35.848C37.0872 34.072 37.2952 32.792 37.7112 32.008C38.1432 31.224 38.7352 30.832 39.4872 30.832C40.0152 30.832 40.4312 31.008 40.7352 31.36C41.0552 31.696 41.2792 32.12 41.4072 32.632C41.5512 33.128 41.6232 33.632 41.6232 34.144L41.5032 34.096C41.7752 33.232 42.1832 32.488 42.7272 31.864C43.2872 31.24 43.9592 30.928 44.7432 30.928C45.7672 30.928 46.5192 31.336 46.9992 32.152C47.4792 32.952 47.7192 33.952 47.7192 35.152C47.7192 36.752 47.4872 37.872 47.0232 38.512C46.5592 39.152 45.9432 39.472 45.1752 39.472C44.5832 39.472 44.1512 39.296 43.8792 38.944C43.6072 38.576 43.5032 38.008 43.5672 37.24C43.5992 36.584 43.5672 36.136 43.4712 35.896C43.3752 35.656 43.2232 35.536 43.0152 35.536C42.7432 35.536 42.5352 35.696 42.3912 36.016C42.2472 36.336 42.1752 36.76 42.1752 37.288C42.1752 37.608 42.2152 38.016 42.2952 38.512C42.3752 38.992 42.4632 39.52 42.5592 40.096C42.6552 40.672 42.7432 41.248 42.8232 41.824C42.9032 42.384 42.9432 42.904 42.9432 43.384C42.9432 44.344 42.7272 45.032 42.2952 45.448C41.8632 45.848 41.2632 46.048 40.4952 46.048C39.7432 46.048 39.1352 45.848 38.6712 45.448C38.2072 45.048 37.8872 44.392 37.7112 43.48C37.6152 42.856 37.5112 42.096 37.3992 41.2C37.3032 40.304 37.2232 39.376 37.1592 38.416C37.1112 37.456 37.0872 36.6 37.0872 35.848ZM59.9682 46.24C59.1522 46.24 58.6082 46.032 58.3362 45.616C58.0642 45.184 57.9282 44.504 57.9282 43.576L58.2882 43.696C57.4242 45.44 55.7602 46.312 53.2962 46.312C52.1762 46.312 51.2482 46.112 50.5122 45.712C49.7762 45.312 49.2242 44.792 48.8562 44.152C48.5042 43.496 48.3282 42.776 48.3282 41.992C48.3282 40.648 48.8162 39.584 49.7922 38.8C50.7682 38.016 52.0642 37.624 53.6802 37.624C54.6882 37.624 55.5682 37.776 56.3202 38.08C57.0882 38.384 57.7282 38.808 58.2402 39.352L57.5682 39.304C57.5362 37.96 57.2722 37.008 56.7762 36.448C56.2802 35.872 55.5602 35.584 54.6162 35.584C54.1842 35.584 53.7362 35.656 53.2722 35.8C52.8082 35.928 52.3442 36.064 51.8802 36.208C51.4322 36.352 50.9762 36.424 50.5122 36.424C49.9362 36.424 49.4882 36.264 49.1682 35.944C48.8482 35.624 48.6882 35.208 48.6882 34.696C48.6882 33.992 48.9922 33.36 49.6002 32.8C50.2082 32.24 51.0082 31.8 52.0002 31.48C53.0082 31.144 54.0962 30.976 55.2642 30.976C56.7522 30.976 58.0402 31.272 59.1282 31.864C60.2322 32.456 61.0242 33.36 61.5042 34.576C61.8722 35.488 62.1282 36.52 62.2722 37.672C62.4322 38.808 62.5122 40.024 62.5122 41.32C62.5122 42.616 62.4242 43.624 62.2482 44.344C62.0882 45.048 61.8162 45.544 61.4322 45.832C61.0642 46.104 60.5762 46.24 59.9682 46.24ZM55.1202 42.952C55.4882 42.952 55.8642 42.896 56.2482 42.784C56.6322 42.656 56.9522 42.48 57.2082 42.256C57.4802 42.032 57.6162 41.752 57.6162 41.416C57.6162 41.112 57.5122 40.864 57.3042 40.672C57.0962 40.464 56.8162 40.32 56.4642 40.24C56.1122 40.144 55.7362 40.096 55.3362 40.096C54.6322 40.096 54.0802 40.232 53.6802 40.504C53.2802 40.776 53.0802 41.128 53.0802 41.56C53.0802 41.976 53.2642 42.312 53.6322 42.568C54.0002 42.824 54.4962 42.952 55.1202 42.952ZM67.3474 31.552H67.0354C66.9714 30.848 66.9954 30.184 67.1074 29.56C67.2194 28.92 67.4674 28.408 67.8514 28.024C68.2354 27.624 68.7794 27.424 69.4834 27.424C70.1874 27.424 70.6994 27.6 71.0194 27.952C71.3554 28.288 71.5234 28.768 71.5234 29.392C71.5234 30.272 71.3314 31.024 70.9474 31.648L70.7074 31.6C71.3474 31.296 72.0514 31.144 72.8194 31.144C73.6194 31.144 74.2594 31.328 74.7394 31.696C75.2194 32.048 75.4594 32.656 75.4594 33.52C75.4594 34.32 75.1794 34.936 74.6194 35.368C74.0754 35.784 73.3874 35.992 72.5554 35.992C72.2194 35.992 71.8594 35.976 71.4754 35.944C71.1074 35.896 70.7394 35.824 70.3714 35.728L70.5634 35.392C70.7554 35.904 70.9394 36.488 71.1154 37.144C71.3074 37.784 71.4674 38.448 71.5954 39.136C71.7394 39.824 71.8514 40.504 71.9314 41.176C72.0274 41.832 72.0754 42.416 72.0754 42.928C72.0754 43.952 71.8434 44.76 71.3794 45.352C70.9154 45.944 70.2194 46.24 69.2914 46.24C68.6834 46.24 68.1794 46.12 67.7794 45.88C67.3954 45.624 67.0914 45.288 66.8674 44.872C66.6434 44.456 66.4834 43.976 66.3874 43.432C66.3074 42.888 66.2674 42.328 66.2674 41.752C66.2674 41.16 66.3074 40.504 66.3874 39.784C66.4674 39.048 66.5874 38.288 66.7474 37.504C66.9234 36.704 67.1154 35.944 67.3234 35.224L67.6354 35.776C67.0434 36.192 66.2994 36.4 65.4034 36.4C64.5714 36.4 63.9154 36.2 63.4354 35.8C62.9714 35.4 62.7394 34.792 62.7394 33.976C62.7394 33.112 62.9954 32.448 63.5074 31.984C64.0194 31.504 64.7074 31.264 65.5714 31.264C65.9234 31.264 66.2514 31.296 66.5554 31.36C66.8594 31.408 67.1234 31.472 67.3474 31.552ZM88.4399 35.008C88.5999 34.352 88.8879 33.76 89.3039 33.232C89.7199 32.704 90.2239 32.288 90.8159 31.984C91.4239 31.664 92.0799 31.504 92.7839 31.504C93.6479 31.504 94.4079 31.704 95.0639 32.104C95.7359 32.504 96.2639 33.16 96.6479 34.072C97.0319 34.984 97.2239 36.2 97.2239 37.72C97.2239 38.472 97.1919 39.232 97.1279 40C97.0639 40.768 96.9839 41.48 96.8879 42.136C96.7919 42.792 96.6879 43.344 96.5759 43.792C96.3839 44.544 96.0479 45.104 95.5679 45.472C95.1039 45.84 94.5279 46.024 93.8399 46.024C93.1999 46.024 92.6959 45.832 92.3279 45.448C91.9599 45.048 91.7759 44.488 91.7759 43.768C91.7759 43.48 91.8159 43.096 91.8959 42.616C91.9759 42.136 92.0639 41.616 92.1599 41.056C92.2559 40.496 92.3439 39.944 92.4239 39.4C92.5039 38.856 92.5439 38.384 92.5439 37.984C92.5439 37.392 92.4319 36.936 92.2079 36.616C91.9839 36.28 91.6639 36.112 91.2479 36.112C90.7519 36.112 90.3439 36.416 90.0239 37.024C89.7199 37.632 89.5279 38.512 89.4479 39.664C89.3999 40.576 89.3439 41.392 89.2799 42.112C89.2159 42.816 89.0959 43.408 88.9199 43.888C88.7439 44.432 88.4799 44.84 88.1279 45.112C87.7759 45.384 87.3039 45.52 86.7119 45.52C86.0719 45.52 85.5519 45.328 85.1519 44.944C84.7679 44.56 84.5599 43.96 84.5279 43.144C84.5119 42.632 84.5039 42.032 84.5039 41.344C84.5199 40.656 84.5279 39.976 84.5279 39.304C84.5439 38.632 84.5359 38.072 84.5039 37.624C84.4719 36.92 84.3439 36.408 84.1199 36.088C83.8959 35.752 83.5679 35.584 83.1359 35.584C82.6719 35.584 82.3039 35.824 82.0319 36.304C81.7599 36.768 81.5839 37.424 81.5039 38.272C81.4719 38.672 81.4559 39.16 81.4559 39.736C81.4719 40.312 81.4799 40.888 81.4799 41.464C81.4959 42.024 81.4959 42.504 81.4799 42.904C81.4479 44.008 81.2239 44.8 80.8079 45.28C80.4079 45.744 79.8479 45.976 79.1279 45.976C78.3119 45.976 77.7039 45.744 77.3039 45.28C76.9199 44.816 76.6799 44.064 76.5839 43.024C76.5199 42.368 76.4719 41.712 76.4399 41.056C76.4079 40.4 76.3919 39.744 76.3919 39.088C76.3919 38.432 76.4159 37.728 76.4639 36.976C76.5119 36.224 76.5679 35.504 76.6319 34.816C76.7599 33.824 76.9999 32.992 77.3519 32.32C77.7039 31.648 78.2799 31.312 79.0799 31.312C79.7999 31.312 80.3119 31.544 80.6159 32.008C80.9359 32.456 81.0959 33.152 81.0959 34.096C81.0959 34.416 81.0719 34.712 81.0239 34.984L80.9519 34.504C81.2719 33.464 81.7999 32.656 82.5359 32.08C83.2719 31.488 84.0879 31.192 84.9839 31.192C86.1519 31.192 87.0559 31.56 87.6959 32.296C88.3519 33.016 88.7119 34.016 88.7759 35.296L88.4399 35.008ZM109.914 46.24C109.098 46.24 108.554 46.032 108.282 45.616C108.01 45.184 107.874 44.504 107.874 43.576L108.234 43.696C107.37 45.44 105.706 46.312 103.242 46.312C102.122 46.312 101.194 46.112 100.458 45.712C99.7215 45.312 99.1695 44.792 98.8015 44.152C98.4495 43.496 98.2735 42.776 98.2735 41.992C98.2735 40.648 98.7615 39.584 99.7375 38.8C100.714 38.016 102.01 37.624 103.626 37.624C104.634 37.624 105.514 37.776 106.266 38.08C107.034 38.384 107.674 38.808 108.186 39.352L107.514 39.304C107.482 37.96 107.218 37.008 106.722 36.448C106.226 35.872 105.506 35.584 104.562 35.584C104.13 35.584 103.682 35.656 103.218 35.8C102.754 35.928 102.29 36.064 101.826 36.208C101.378 36.352 100.922 36.424 100.458 36.424C99.8815 36.424 99.4335 36.264 99.1135 35.944C98.7935 35.624 98.6335 35.208 98.6335 34.696C98.6335 33.992 98.9375 33.36 99.5455 32.8C100.154 32.24 100.954 31.8 101.946 31.48C102.954 31.144 104.042 30.976 105.21 30.976C106.698 30.976 107.986 31.272 109.074 31.864C110.178 32.456 110.97 33.36 111.45 34.576C111.818 35.488 112.074 36.52 112.218 37.672C112.378 38.808 112.458 40.024 112.458 41.32C112.458 42.616 112.37 43.624 112.194 44.344C112.034 45.048 111.762 45.544 111.378 45.832C111.01 46.104 110.522 46.24 109.914 46.24ZM105.066 42.952C105.434 42.952 105.81 42.896 106.194 42.784C106.578 42.656 106.898 42.48 107.154 42.256C107.426 42.032 107.562 41.752 107.562 41.416C107.562 41.112 107.458 40.864 107.25 40.672C107.042 40.464 106.762 40.32 106.41 40.24C106.058 40.144 105.682 40.096 105.282 40.096C104.578 40.096 104.026 40.232 103.626 40.504C103.226 40.776 103.026 41.128 103.026 41.56C103.026 41.976 103.21 42.312 103.578 42.568C103.946 42.824 104.442 42.952 105.066 42.952Z" fill="#C68290"/>
</svg>
